PathFileType	4	(X/Y/Z)	C:/Users/opensim2020/Desktop/walking_exp_matlab/subject01_walking05_straight_01.trc																																																																																																																															
DataRate	CameraRate	NumFrames	NumMarkers	Units	OrigDataRate	OrigDataStartFrame	OrigNumFrames																																																																																																																											
100	100	5	43	mm	100	964	239																																																																																																																											
Frame#	Time	LFHD			RFHD			LBHD			RBHD			C7			T10			CLAV			STRN			RBAK			LSHO			LUPA			LELB			LFRM			LWRA			LWRB			LFIN			RSHO			RUPA			RELB			RFRM			RWRA			RWRB			RFIN			LASI			RASI			LPSI			RPSI			LTHI			LKNE			LTIB			LANK			LHEE			LTOE			RTHI			RKNE			RTIB			RANK			RHEE			RTOE			*39			*40			*41			*42		
		X1	Y1	Z1	X2	Y2	Z2	X3	Y3	Z3	X4	Y4	Z4	X5	Y5	Z5	X6	Y6	Z6	X7	Y7	Z7	X8	Y8	Z8	X9	Y9	Z9	X10	Y10	Z10	X11	Y11	Z11	X12	Y12	Z12	X13	Y13	Z13	X14	Y14	Z14	X15	Y15	Z15	X16	Y16	Z16	X17	Y17	Z17	X18	Y18	Z18	X19	Y19	Z19	X20	Y20	Z20	X21	Y21	Z21	X22	Y22	Z22	X23	Y23	Z23	X24	Y24	Z24	X25	Y25	Z25	X26	Y26	Z26	X27	Y27	Z27	X28	Y28	Z28	X29	Y29	Z29	X30	Y30	Z30	X31	Y31	Z31	X32	Y32	Z32	X33	Y33	Z33	X34	Y34	Z34	X35	Y35	Z35	X36	Y36	Z36	X37	Y37	Z37	X38	Y38	Z38	X39	Y39	Z39	X40	Y40	Z40	X41	Y41	Z41	X42	Y42	Z42	X43	Y43	Z43
																																																																																																																																		
210	2.09	778.11279	1679.52441	-1058.91272	779.04877	1684.66663	-943.80658	673.34808	1610.96118	-1063.89087	671.51373	1614.55493	-942.17706	660.45782	1425.47913	-1022.92322	645.01794	1132.18677	-1014.49597	810.62854	1370.73694	-1011.06689	865.60699	1219.96753	-1020.17566	619.90564	1225.3385	-950.37842	757.9267	1398.6864	-1175.64294	759.49463	1219.4115	-1270.82922	773.98901	1067.97815	-1287.44812	859.32104	988.23944	-1310.80798	982.35272	925.80627	-1290.76697	937.72418	894.75427	-1315.83264	1012.71985	858.95477	-1326.48389	733.95831	1390.51331	-863.48926	663.49091	1189.67932	-775.58063	659.34381	1065.86975	-777.28577	671.8963	946.89825	-745.73865	740.14923	821.57294	-759.3783	694.112	827.75079	-724.71826	721.37811	746.0675	-725.24329	819.90546	930.37823	-1127.19128	833.99121	937.97644	-913.17322	637.90002	944.47174	-1062.58264	648.81897	947.8421	-917.00848	753.45569	595.87079	-1190.2887	722.54822	463.6113	-1184.55676	575.10144	345.9364	-1191.24316	427.33371	177.61121	-1144.14111	385.27783	195.64874	-1090.47302	482.82489	39.85887	-1113.79297	840.48846	607.19952	-860.74963	879.85437	455.34799	-897.73828	855.48334	279.87985	-894.29822	854.12469	77.82336	-952.84088	807.96918	40.11897	-1006.36389	994.8233	42.54343	-949.67188	761.54724	1715.401	-967.47784	1973.11438	1023.27283	-3101.86182	2012.47107	1021.95642	-3140.66943	NaN	NaN	NaN
211	2.1	787.84473	1680.25122	-1056.44446	788.74054	1685.04077	-941.39301	682.98267	1612.03259	-1061.88306	681.02026	1615.20789	-940.13007	669.8316	1426.03613	-1021.1839	654.49866	1132.81885	-1012.93988	819.99744	1371.37817	-1009.50146	874.95087	1220.64453	-1018.72998	629.55859	1226.02271	-948.27075	767.35547	1399.4812	-1173.90649	767.98218	1220.05579	-1269.28601	780.56311	1068.16467	-1284.82935	864.57599	987.02777	-1308.3114	986.72321	922.51068	-1288.49329	941.44263	892.24634	-1313.52185	1015.92548	854.97668	-1323.98657	743.50824	1391.12756	-861.87354	673.69702	1190.36194	-773.74011	670.18298	1066.37292	-775.67169	683.91833	947.4046	-744.09845	753.35571	822.72156	-757.96136	707.32202	828.47235	-723.19452	735.51825	747.15594	-723.7558	829.62579	931.11621	-1125.35071	843.41882	938.9007	-911.21301	647.52551	944.5296	-1061.31128	658.39081	948.66687	-915.70013	770.55176	595.23126	-1189.64307	742.06207	462.70996	-1184.63269	594.57306	346.75949	-1192.4082	442.22183	183.75378	-1145.87695	399.16486	203.96677	-1093.81909	491.38959	43.80696	-1114.39111	845.64862	606.90509	-860.10211	885.18567	455.02213	-896.89691	858.19708	279.75095	-894.54865	854.49597	77.88805	-953.00366	807.99219	40.27114	-1006.48407	995.20782	42.26286	-950.00055	771.35754	1715.92957	-964.83691	1973.15491	1023.47986	-3101.90503	2012.55371	1021.99774	-3140.51978	NaN	NaN	NaN
212	2.11	797.61572	1681.03577	-1053.96106	798.39618	1685.47351	-938.96362	692.50854	1613.10278	-1059.99048	690.39648	1615.91919	-938.05933	679.10693	1426.7843	-1019.52551	663.86871	1133.51648	-1011.32391	829.30078	1371.97253	-1008.03253	884.24835	1221.25061	-1017.36963	639.05048	1226.79297	-946.15753	776.74683	1400.1676	-1172.37964	776.40784	1220.63501	-1267.79028	787.18732	1068.39954	-1282.08118	869.58948	985.50677	-1305.96985	990.91632	919.0307	-1286.25427	945.00317	889.5614	-1311.17871	1018.85138	850.83124	-1321.43579	753.28326	1391.92761	-860.40088	683.97144	1191.02661	-771.815	680.94379	1066.80737	-773.90881	695.95428	947.78839	-742.4389	767.01349	824.1051	-756.44403	720.72839	829.11859	-721.67999	749.70172	747.96387	-722.44965	839.23981	931.70203	-1123.78015	852.75671	939.58875	-909.28522	656.84656	944.35394	-1059.92395	667.64838	948.99506	-914.4751	787.23828	594.86316	-1188.70886	761.53845	462.07135	-1184.3689	614.59473	346.90808	-1193.77759	457.09131	189.67981	-1146.70129	413.85294	210.92323	-1095.08679	503.96039	48.39356	-1116.55579	850.85895	606.72522	-859.54602	889.84351	454.55179	-895.95343	859.69623	279.49258	-894.57465	854.72797	77.85156	-953.21014	807.76697	40.53338	-1006.7962	995.75024	42.22028	-950.24512	780.97357	1716.2666	-962.43054	1973.15625	1023.32483	-3101.74463	2012.52222	1022.00409	-3140.65479	NaN	NaN	NaN
213	2.12	807.38959	1681.80652	-1051.79028	808.01575	1685.74634	-936.789	702.09717	1614.17993	-1058.14355	699.88214	1616.52661	-936.2326	688.4848	1427.40552	-1017.99042	673.15424	1134.09998	-1009.55725	838.52527	1372.57263	-1006.72113	893.41309	1221.77295	-1016.13098	648.31824	1227.61768	-944.18201	785.97461	1400.72986	-1171.09534	784.60968	1221.11682	-1266.25952	793.79468	1068.42529	-1279.72656	874.56677	983.95154	-1303.63025	994.89288	915.42303	-1284.10815	948.32239	886.70807	-1308.75549	1021.51312	846.55566	-1318.88574	762.86108	1392.44385	-858.94403	694.30029	1191.59351	-769.89673	691.70203	1067.12219	-772.1131	708.13904	948.11871	-740.69873	780.33466	825.1701	-755.0918	734.27411	829.79047	-720.24823	764.35986	749.02887	-720.9303	848.46423	932.29614	-1122.08789	861.43622	940.04541	-907.73615	665.98914	943.94696	-1058.60339	675.80261	949.49103	-913.04529	803.75391	594.91516	-1187.47424	781.0802	461.71967	-1183.78857	634.7168	346.64935	-1194.97681	472.31409	195.4686	-1147.02087	429.38513	216.21365	-1094.6908	519.16809	53.61747	-1119.46289	856.27808	606.58069	-858.88116	893.85461	454.04047	-895.01416	860.88763	279.28305	-894.33899	854.87909	77.84195	-953.38574	807.81165	40.55551	-1006.95087	995.82422	41.90268	-950.56219	790.69934	1716.70923	-959.96594	1973.18628	1023.30096	-3101.90332	2012.5083	1022.03204	-3140.66064	NaN	NaN	NaN
214	2.13	817.18134	1682.54456	-1049.66687	817.66211	1686.14856	-934.6015	711.71783	1615.26563	-1056.29199	709.32123	1617.17664	-934.56165	697.79565	1428.15637	-1016.66516	682.32715	1134.72693	-1007.76282	847.74353	1373.08813	-1005.51288	902.51251	1222.21851	-1014.91864	657.48389	1228.41772	-942.33472	795.11737	1401.28418	-1169.77429	792.70105	1221.48914	-1264.62598	800.45996	1068.4696	-1277.25244	879.51337	982.40155	-1301.29993	998.67279	911.7381	-1281.95935	951.52069	883.96387	-1306.50574	1023.92645	842.16779	-1316.34143	772.52924	1393.0083	-857.60852	704.83319	1192.08447	-767.87073	702.59058	1067.30969	-770.26373	720.2948	948.40747	-738.87018	793.93445	826.38361	-753.57532	747.93347	830.30042	-718.56299	779.0979	750.12946	-719.49133	857.92999	932.86487	-1121.07312	870.05573	940.21417	-906.04749	675.05487	943.56323	-1057.37451	684.84961	949.84589	-911.82135	820.21698	595.5528	-1186.17651	800.57782	461.80469	-1183.02332	654.40314	347.43842	-1195.49023	489.06232	200.89293	-1147.0332	446.08859	220.51872	-1093.86707	535.75305	58.50373	-1122.8197	861.9696	606.37018	-858.02606	897.61957	453.31412	-893.64087	861.86926	279.11075	-893.94379	855.08759	77.83226	-953.53442	807.84912	40.72643	-1007.01898	996.06927	41.74492	-950.67828	800.49512	1717.28003	-957.75909	1973.16858	1023.36426	-3101.92041	2012.46997	1021.97754	-3140.63037	NaN	NaN	NaN
